# Blender v2.90.0 OBJ File: 'TrafficBarrier_01.blend'
# www.blender.org
mtllib TrafficBarrier_01.mtl
o TrafficBarrier_01_Cube.021
v 4.278915 -1.868472 -2.262384
v 4.278915 -0.186019 -1.642039
v 4.278915 -1.934549 -2.083175
v 4.278915 -0.252096 -1.462830
v -4.278915 -1.868472 -2.262381
v -4.278915 -0.186019 -1.642036
v -4.278915 -1.934549 -2.083172
v -4.278915 -0.252096 -1.462827
v 3.582281 -3.846889 -1.776373
v 3.582282 2.809743 0.007266
v 3.252047 -3.797542 -1.960537
v 3.252048 2.859089 -0.176898
v 3.252047 -3.698849 -2.328865
v 3.252048 2.957783 -0.545226
v 3.582281 -3.649503 -2.513029
v 3.582281 3.007129 -0.729390
v 3.912515 -3.698849 -2.328865
v 3.912515 2.957783 -0.545226
v 3.912515 -3.797542 -1.960537
v 3.912515 2.859089 -0.176898
v -3.582281 -3.846889 -1.776371
v -3.582280 2.809743 0.007268
v -3.252047 -3.797542 -1.960535
v -3.252046 2.859089 -0.176896
v -3.252047 -3.698849 -2.328863
v -3.252046 2.957783 -0.545223
v -3.582281 -3.649502 -2.513026
v -3.582280 3.007129 -0.729387
v -3.912515 -3.698849 -2.328862
v -3.912514 2.957783 -0.545223
v -3.912515 -3.797542 -1.960535
v -3.912514 2.859089 -0.176895
v 4.278915 0.755952 -1.644462
v 4.278915 2.438405 -1.024116
v 4.278915 0.689875 -1.465252
v 4.278915 2.372328 -0.844907
v -4.278914 0.755952 -1.644459
v -4.278914 2.438405 -1.024113
v -4.278914 0.689875 -1.465250
v -4.278914 2.372328 -0.844904
v -2.139457 0.689875 -1.465250
v 0.000001 0.689875 -1.465251
v 2.139458 0.689875 -1.465252
v 2.139458 2.372328 -0.844906
v 0.000001 2.372328 -0.844905
v -2.139457 2.372328 -0.844905
v 2.139458 0.755952 -1.644461
v 0.000000 0.755952 -1.644460
v -2.139457 0.755952 -1.644460
v -2.139457 2.438405 -1.024114
v 0.000001 2.438405 -1.024115
v 2.139458 2.438405 -1.024116
v -2.139458 -1.934549 -2.083173
v 0.000000 -1.934549 -2.083174
v 2.139458 -1.934549 -2.083174
v 2.139458 -0.252096 -1.462829
v 0.000000 -0.252096 -1.462828
v -2.139457 -0.252096 -1.462827
v 2.139458 -1.868472 -2.262383
v 0.000000 -1.868472 -2.262383
v -2.139458 -1.868472 -2.262382
v -2.139457 -0.186019 -1.642037
v 0.000000 -0.186019 -1.642037
v 2.139458 -0.186019 -1.642038
v -4.278915 -1.868472 2.262383
v -4.278916 -0.186019 1.642037
v -4.278915 -1.934549 2.083173
v -4.278916 -0.252096 1.462828
v 4.278915 -1.868473 2.262383
v 4.278914 -0.186019 1.642037
v 4.278915 -1.934549 2.083173
v 4.278914 -0.252096 1.462828
v -3.582281 -3.846889 1.776372
v -3.582281 2.809742 -0.007267
v -3.252047 -3.797542 1.960536
v -3.252047 2.859089 0.176897
v -3.252047 -3.698849 2.328863
v -3.252048 2.957783 0.545224
v -3.582281 -3.649502 2.513027
v -3.582281 3.007129 0.729388
v -3.912515 -3.698849 2.328863
v -3.912515 2.957783 0.545224
v -3.912515 -3.797542 1.960536
v -3.912515 2.859089 0.176897
v 3.582280 -3.846889 1.776372
v 3.582280 2.809743 -0.007267
v 3.252046 -3.797542 1.960536
v 3.252046 2.859090 0.176897
v 3.252046 -3.698849 2.328864
v 3.252046 2.957783 0.545224
v 3.582280 -3.649502 2.513027
v 3.582280 3.007129 0.729388
v 3.912514 -3.698849 2.328863
v 3.912514 2.957783 0.545224
v 3.912514 -3.797542 1.960536
v 3.912514 2.859090 0.176897
v -4.278916 0.755952 1.644460
v -4.278915 2.438405 1.024115
v -4.278915 0.689875 1.465251
v -4.278915 2.372328 0.844905
v 4.278914 0.755952 1.644460
v 4.278914 2.438406 1.024115
v 4.278914 0.689875 1.465251
v 4.278914 2.372328 0.844905
v 2.139457 0.689875 1.465251
v -0.000001 0.689875 1.465251
v -2.139458 0.689875 1.465251
v -2.139458 2.372328 0.844905
v -0.000001 2.372328 0.844905
v 2.139457 2.372328 0.844905
v -2.139458 0.755952 1.644460
v -0.000001 0.755952 1.644460
v 2.139457 0.755952 1.644460
v 2.139457 2.438406 1.024115
v -0.000001 2.438405 1.024115
v -2.139458 2.438406 1.024115
v 2.139457 -1.934550 2.083174
v -0.000000 -1.934550 2.083174
v -2.139458 -1.934549 2.083174
v -2.139458 -0.252096 1.462828
v -0.000000 -0.252096 1.462828
v 2.139457 -0.252096 1.462828
v -2.139458 -1.868472 2.262383
v -0.000000 -1.868472 2.262383
v 2.139457 -1.868472 2.262383
v 2.139457 -0.186019 1.642037
v -0.000000 -0.186019 1.642037
v -2.139458 -0.186019 1.642037
vt 0.625000 0.437500
vt 0.375000 0.500000
vt 0.375000 0.437500
vt 0.625000 0.500000
vt 0.375000 0.750000
vt 0.312500 0.500000
vt 0.312500 0.750000
vt 0.375000 0.000000
vt 0.625000 0.250000
vt 0.375000 0.250000
vt 0.625000 0.937500
vt 0.375000 1.000000
vt 0.375000 0.937500
vt 0.875000 0.500000
vt 0.812500 0.750000
vt 0.812500 0.500000
vt 0.750000 0.500000
vt 0.687500 0.750000
vt 0.687500 0.500000
vt 0.187500 0.500000
vt 0.125000 0.750000
vt 0.125000 0.500000
vt 0.312500 0.500000
vt 0.250000 0.750000
vt 0.250000 0.500000
vt 0.625000 0.812500
vt 0.375000 0.875000
vt 0.375000 0.812500
vt 0.375000 0.312500
vt 0.625000 0.375000
vt 0.375000 0.437500
vt 0.375000 0.375000
vt 0.687500 0.500000
vt 0.625000 0.750000
vt 0.812500 0.500000
vt 0.750000 0.750000
vt 0.750000 0.500000
vt 0.250000 0.500000
vt 0.187500 0.750000
vt 0.187500 0.500000
vt 0.375000 0.812500
vt 0.625000 0.875000
vt 0.375000 0.937500
vt 0.375000 0.875000
vt 0.625000 0.312500
vt 0.375000 0.375000
vt 0.375000 0.312500
vt 0.625000 0.437500
vt 0.375000 0.500000
vt 0.375000 0.437500
vt 0.625000 0.750000
vt 0.375000 0.750000
vt 0.312500 0.750000
vt 0.312500 0.500000
vt 0.625000 0.000000
vt 0.375000 0.250000
vt 0.375000 0.000000
vt 0.375000 0.937500
vt 0.625000 1.000000
vt 0.375000 1.000000
vt 0.812500 0.500000
vt 0.875000 0.750000
vt 0.812500 0.750000
vt 0.750000 0.500000
vt 0.687500 0.750000
vt 0.687500 0.500000
vt 0.125000 0.500000
vt 0.187500 0.750000
vt 0.125000 0.750000
vt 0.312500 0.500000
vt 0.250000 0.750000
vt 0.250000 0.500000
vt 0.625000 0.812500
vt 0.375000 0.875000
vt 0.375000 0.812500
vt 0.625000 0.312500
vt 0.375000 0.312500
vt 0.625000 0.375000
vt 0.375000 0.437500
vt 0.375000 0.375000
vt 0.687500 0.500000
vt 0.625000 0.500000
vt 0.812500 0.500000
vt 0.750000 0.750000
vt 0.750000 0.500000
vt 0.250000 0.500000
vt 0.187500 0.750000
vt 0.187500 0.500000
vt 0.375000 0.812500
vt 0.625000 0.875000
vt 0.375000 0.937500
vt 0.375000 0.875000
vt 0.625000 0.312500
vt 0.375000 0.375000
vt 0.375000 0.312500
vt 0.625000 0.000000
vt 0.625000 1.000000
vt 0.875000 0.750000
vt 0.750000 0.750000
vt 0.187500 0.750000
vt 0.312500 0.750000
vt 0.625000 0.875000
vt 0.625000 0.312500
vt 0.625000 0.437500
vt 0.687500 0.750000
vt 0.812500 0.750000
vt 0.250000 0.750000
vt 0.625000 0.812500
vt 0.625000 0.937500
vt 0.625000 0.375000
vt 0.625000 0.250000
vt 0.625000 0.937500
vt 0.875000 0.500000
vt 0.750000 0.750000
vt 0.187500 0.500000
vt 0.312500 0.750000
vt 0.625000 0.875000
vt 0.625000 0.437500
vt 0.687500 0.750000
vt 0.812500 0.750000
vt 0.250000 0.750000
vt 0.625000 0.812500
vt 0.625000 0.937500
vt 0.625000 0.375000
vt 0.625000 0.000000
vt 0.375000 0.250000
vt 0.375000 0.000000
vt 0.375000 1.000000
vt 0.875000 0.500000
vt 0.375000 0.500000
vt 0.625000 0.750000
vt 0.375000 0.750000
vt 0.625000 0.500000
vt 0.125000 0.500000
vt 0.125000 0.750000
vt 0.375000 0.000000
vt 0.625000 0.250000
vt 0.375000 0.250000
vt 0.375000 1.000000
vt 0.875000 0.500000
vt 0.375000 0.500000
vt 0.625000 0.500000
vt 0.375000 0.750000
vt 0.625000 0.750000
vt 0.125000 0.750000
vt 0.125000 0.500000
vt 0.625000 0.250000
vt 0.625000 1.000000
vt 0.875000 0.750000
vt 0.625000 0.000000
vt 0.625000 1.000000
vt 0.875000 0.750000
vt 1.000000 1.000000
vt 0.833333 0.500000
vt 1.000000 0.500000
vt 0.666667 1.000000
vt 0.666667 0.500000
vt 0.500000 0.500000
vt 0.500000 1.000000
vt 0.333333 0.500000
vt 0.250000 0.010000
vt 0.457846 0.130000
vt 0.250000 0.490000
vt 0.333333 1.000000
vt 0.166667 0.500000
vt -0.000000 1.000000
vt -0.000000 0.500000
vt 0.750000 0.010000
vt 0.542154 0.130000
vt 0.542154 0.370000
vt 1.000000 0.500000
vt 0.833333 1.000000
vt 1.000000 1.000000
vt 0.666667 0.500000
vt 0.833333 0.500000
vt 0.500000 0.500000
vt 0.666667 1.000000
vt 0.333333 1.000000
vt 0.500000 1.000000
vt 0.042154 0.130000
vt 0.042154 0.370000
vt 0.250000 0.490000
vt 0.333333 0.500000
vt 0.166667 1.000000
vt -0.000000 0.500000
vt 0.166667 0.500000
vt 0.750000 0.010000
vt 0.957846 0.130000
vt 0.957846 0.370000
vt 1.000000 1.000000
vt 0.833333 0.500000
vt 1.000000 0.500000
vt 0.833333 1.000000
vt 0.666667 0.500000
vt 0.666667 1.000000
vt 0.500000 0.500000
vt 0.500000 1.000000
vt 0.333333 0.500000
vt 0.250000 0.490000
vt 0.042154 0.130000
vt 0.457846 0.130000
vt 0.166667 1.000000
vt 0.166667 0.500000
vt -0.000000 0.500000
vt 0.750000 0.010000
vt 0.542154 0.130000
vt 0.542154 0.370000
vt 0.833333 0.500000
vt 1.000000 1.000000
vt 1.000000 0.500000
vt 0.666667 0.500000
vt 0.833333 1.000000
vt 0.500000 0.500000
vt 0.666667 1.000000
vt 0.333333 0.500000
vt 0.500000 1.000000
vt 0.042154 0.130000
vt 0.042154 0.370000
vt 0.250000 0.490000
vt 0.166667 0.500000
vt 0.333333 1.000000
vt -0.000000 1.000000
vt 0.166667 1.000000
vt 0.750000 0.010000
vt 0.957846 0.130000
vt 0.957846 0.370000
vt 0.833333 1.000000
vt 0.457846 0.370000
vt 0.042154 0.370000
vt 0.042154 0.130000
vt 0.166667 1.000000
vt 0.750000 0.490000
vt 0.957846 0.370000
vt 0.957846 0.130000
vt 0.457846 0.370000
vt 0.457846 0.130000
vt 0.250000 0.010000
vt -0.000000 1.000000
vt 0.750000 0.490000
vt 0.542154 0.370000
vt 0.542154 0.130000
vt 0.333333 1.000000
vt 0.457846 0.370000
vt 0.042154 0.370000
vt 0.250000 0.010000
vt -0.000000 1.000000
vt 0.750000 0.490000
vt 0.957846 0.370000
vt 0.957846 0.130000
vt 0.457846 0.370000
vt 0.457846 0.130000
vt 0.250000 0.010000
vt -0.000000 0.500000
vt 0.750000 0.490000
vt 0.542154 0.370000
vt 0.542154 0.130000
vn 0.0000 -0.3459 0.9383
vn -1.0000 0.0000 0.0000
vn -0.0000 -0.9383 -0.3459
vn 1.0000 0.0000 0.0000
vn -0.0000 0.3459 -0.9383
vn 0.0000 0.9383 0.3459
vn 0.0000 -0.3459 -0.9383
vn 0.0000 -0.9383 0.3459
vn 0.0000 0.3459 0.9383
vn -0.0000 0.9383 -0.3459
vn -0.5000 -0.2241 0.8365
vn -0.5000 0.2241 -0.8365
vn 0.5000 0.2241 -0.8365
vn 0.0000 0.9659 0.2588
vn 0.5000 -0.2241 0.8365
vn 0.0000 -0.9659 -0.2588
vn 0.5000 -0.2241 -0.8365
vn 0.5000 0.2241 0.8365
vn -0.5000 0.2241 0.8365
vn 0.0000 0.9659 -0.2588
vn -0.5000 -0.2241 -0.8365
vn -0.0000 -0.9659 0.2588
usemtl RedCone.002
s off
f 58/1/1 7/2/1 53/3/1
f 8/4/2 5/5/2 7/2/2
f 53/6/3 5/5/3 61/7/3
f 33/8/4 36/9/4 35/10/4
f 52/11/5 33/12/5 47/13/5
f 36/14/6 52/15/6 44/16/6
f 45/17/6 50/18/6 46/19/6
f 43/20/3 33/21/3 35/22/3
f 41/23/3 48/24/3 42/25/3
f 50/26/5 48/27/5 49/28/5
f 36/9/1 43/29/1 35/10/1
f 45/30/1 41/31/1 42/32/1
f 58/33/6 6/34/6 8/4/6
f 56/35/6 63/36/6 57/37/6
f 54/38/3 59/39/3 55/40/3
f 6/34/5 61/41/5 5/5/5
f 63/42/5 59/43/5 60/44/5
f 56/45/1 54/46/1 55/47/1
f 122/48/7 71/49/7 117/50/7
f 71/49/4 70/51/4 69/52/4
f 71/49/8 125/53/8 117/54/8
f 98/55/2 99/56/2 97/57/2
f 111/58/9 98/59/9 97/60/9
f 108/61/10 98/62/10 116/63/10
f 109/64/10 114/65/10 110/66/10
f 99/67/8 111/68/8 97/69/8
f 105/70/8 112/71/8 106/72/8
f 114/73/9 112/74/9 113/75/9
f 99/56/7 108/76/7 107/77/7
f 109/78/7 105/79/7 106/80/7
f 122/81/10 70/51/10 72/82/10
f 120/83/10 127/84/10 121/85/10
f 118/86/8 123/87/8 119/88/8
f 70/51/9 125/89/9 69/52/9
f 127/90/9 123/91/9 124/92/9
f 120/93/7 118/94/7 119/95/7
f 58/1/1 8/4/1 7/2/1
f 8/4/2 6/34/2 5/5/2
f 53/6/3 7/2/3 5/5/3
f 33/8/4 34/96/4 36/9/4
f 52/11/5 34/97/5 33/12/5
f 36/14/6 34/98/6 52/15/6
f 45/17/6 51/99/6 50/18/6
f 43/20/3 47/100/3 33/21/3
f 41/23/3 49/101/3 48/24/3
f 50/26/5 51/102/5 48/27/5
f 36/9/1 44/103/1 43/29/1
f 45/30/1 46/104/1 41/31/1
f 58/33/6 62/105/6 6/34/6
f 56/35/6 64/106/6 63/36/6
f 54/38/3 60/107/3 59/39/3
f 6/34/5 62/108/5 61/41/5
f 63/42/5 64/109/5 59/43/5
f 56/45/1 57/110/1 54/46/1
f 122/48/7 72/82/7 71/49/7
f 71/49/4 72/82/4 70/51/4
f 71/49/8 69/52/8 125/53/8
f 98/55/2 100/111/2 99/56/2
f 111/58/9 116/112/9 98/59/9
f 108/61/10 100/113/10 98/62/10
f 109/64/10 115/114/10 114/65/10
f 99/67/8 107/115/8 111/68/8
f 105/70/8 113/116/8 112/71/8
f 114/73/9 115/117/9 112/74/9
f 99/56/7 100/111/7 108/76/7
f 109/78/7 110/118/7 105/79/7
f 122/81/10 126/119/10 70/51/10
f 120/83/10 128/120/10 127/84/10
f 118/86/8 124/121/8 123/87/8
f 70/51/9 126/122/9 125/89/9
f 127/90/9 128/123/9 123/91/9
f 120/93/7 121/124/7 118/94/7
usemtl WhiteCone.002
f 2/125/4 3/126/4 1/127/4
f 64/109/5 1/128/5 59/43/5
f 4/129/6 64/106/6 56/35/6
f 46/104/1 39/130/1 41/31/1
f 39/130/2 38/131/2 37/132/2
f 39/130/3 49/101/3 41/23/3
f 46/19/6 38/131/6 40/133/6
f 44/16/6 51/99/6 45/17/6
f 42/25/3 47/100/3 43/20/3
f 38/131/5 49/28/5 37/132/5
f 51/102/5 47/13/5 48/27/5
f 44/103/1 42/32/1 43/29/1
f 57/37/6 62/105/6 58/33/6
f 3/134/3 59/39/3 1/135/3
f 53/6/3 60/107/3 54/38/3
f 62/108/5 60/44/5 61/41/5
f 3/126/1 56/45/1 55/47/1
f 57/110/1 53/3/1 54/46/1
f 65/136/2 68/137/2 67/138/2
f 128/123/9 65/139/9 123/91/9
f 68/140/10 128/120/10 120/83/10
f 110/118/7 103/141/7 105/79/7
f 104/142/4 101/143/4 103/141/4
f 103/141/8 113/116/8 105/70/8
f 110/66/10 102/144/10 104/142/10
f 108/61/10 115/114/10 109/64/10
f 106/72/8 111/68/8 107/115/8
f 101/143/9 114/73/9 113/75/9
f 115/117/9 111/58/9 112/74/9
f 108/76/7 106/80/7 107/77/7
f 122/81/10 127/84/10 126/119/10
f 119/88/8 65/145/8 67/146/8
f 117/54/8 124/121/8 118/86/8
f 126/122/9 124/92/9 125/89/9
f 68/137/7 119/95/7 67/138/7
f 118/94/7 122/48/7 117/50/7
f 2/125/4 4/147/4 3/126/4
f 64/109/5 2/148/5 1/128/5
f 4/129/6 2/149/6 64/106/6
f 46/104/1 40/133/1 39/130/1
f 39/130/2 40/133/2 38/131/2
f 39/130/3 37/132/3 49/101/3
f 46/19/6 50/18/6 38/131/6
f 44/16/6 52/15/6 51/99/6
f 42/25/3 48/24/3 47/100/3
f 38/131/5 50/26/5 49/28/5
f 51/102/5 52/11/5 47/13/5
f 44/103/1 45/30/1 42/32/1
f 57/37/6 63/36/6 62/105/6
f 3/134/3 55/40/3 59/39/3
f 53/6/3 61/7/3 60/107/3
f 62/108/5 63/42/5 60/44/5
f 3/126/1 4/147/1 56/45/1
f 57/110/1 58/1/1 53/3/1
f 65/136/2 66/150/2 68/137/2
f 128/123/9 66/151/9 65/139/9
f 68/140/10 66/152/10 128/120/10
f 110/118/7 104/142/7 103/141/7
f 104/142/4 102/144/4 101/143/4
f 103/141/8 101/143/8 113/116/8
f 110/66/10 114/65/10 102/144/10
f 108/61/10 116/63/10 115/114/10
f 106/72/8 112/71/8 111/68/8
f 101/143/9 102/144/9 114/73/9
f 115/117/9 116/112/9 111/58/9
f 108/76/7 109/78/7 106/80/7
f 122/81/10 121/85/10 127/84/10
f 119/88/8 123/87/8 65/145/8
f 117/54/8 125/53/8 124/121/8
f 126/122/9 127/90/9 124/92/9
f 68/137/7 120/93/7 119/95/7
f 118/94/7 121/124/7 122/48/7
usemtl BlackCone
f 10/153/11 11/154/11 9/155/11
f 11/154/2 14/156/2 13/157/2
f 14/156/12 15/158/12 13/157/12
f 16/159/13 17/160/13 15/158/13
f 16/161/14 14/162/14 10/163/14
f 18/164/4 19/165/4 17/160/4
f 19/165/15 10/166/15 9/167/15
f 15/168/16 17/169/16 19/170/16
f 21/171/15 24/172/15 22/173/15
f 25/174/4 24/172/4 23/175/4
f 27/176/13 26/177/13 25/174/13
f 27/176/12 30/178/12 28/179/12
f 30/180/14 32/181/14 22/182/14
f 29/183/2 32/184/2 30/178/2
f 21/185/11 32/184/11 31/186/11
f 27/187/16 25/188/16 23/189/16
f 74/190/17 75/191/17 73/192/17
f 76/193/4 77/194/4 75/191/4
f 78/195/18 79/196/18 77/194/18
f 80/197/19 81/198/19 79/196/19
f 74/199/20 82/200/20 78/201/20
f 81/198/2 84/202/2 83/203/2
f 84/202/21 73/204/21 83/203/21
f 79/205/22 81/206/22 83/207/22
f 87/208/21 86/209/21 85/210/21
f 89/211/2 88/212/2 87/208/2
f 91/213/19 90/214/19 89/211/19
f 93/215/18 92/216/18 91/213/18
f 94/217/20 96/218/20 86/219/20
f 95/220/4 94/221/4 93/215/4
f 95/220/17 86/222/17 96/223/17
f 91/224/22 89/225/22 87/226/22
f 10/153/11 12/227/11 11/154/11
f 11/154/2 12/227/2 14/156/2
f 14/156/12 16/159/12 15/158/12
f 16/159/13 18/164/13 17/160/13
f 14/162/14 12/228/14 10/163/14
f 10/163/14 20/229/14 18/230/14
f 18/230/14 16/161/14 10/163/14
f 18/164/4 20/231/4 19/165/4
f 19/165/15 20/231/15 10/166/15
f 19/170/16 9/232/16 11/233/16
f 11/233/16 13/234/16 19/170/16
f 13/234/16 15/168/16 19/170/16
f 21/171/15 23/175/15 24/172/15
f 25/174/4 26/177/4 24/172/4
f 27/176/13 28/179/13 26/177/13
f 27/176/12 29/183/12 30/178/12
f 22/182/14 24/235/14 26/236/14
f 26/236/14 28/237/14 22/182/14
f 28/237/14 30/180/14 22/182/14
f 29/183/2 31/186/2 32/184/2
f 21/185/11 22/238/11 32/184/11
f 23/189/16 21/239/16 27/187/16
f 21/239/16 31/240/16 27/187/16
f 31/240/16 29/241/16 27/187/16
f 74/190/17 76/193/17 75/191/17
f 76/193/4 78/195/4 77/194/4
f 78/195/18 80/197/18 79/196/18
f 80/197/19 82/242/19 81/198/19
f 78/201/20 76/243/20 74/199/20
f 74/199/20 84/244/20 82/200/20
f 82/200/20 80/245/20 78/201/20
f 81/198/2 82/242/2 84/202/2
f 84/202/21 74/246/21 73/204/21
f 83/207/22 73/247/22 79/205/22
f 73/247/22 75/248/22 79/205/22
f 75/248/22 77/249/22 79/205/22
f 87/208/21 88/212/21 86/209/21
f 89/211/2 90/214/2 88/212/2
f 91/213/19 92/216/19 90/214/19
f 93/215/18 94/221/18 92/216/18
f 86/219/20 88/250/20 90/251/20
f 90/251/20 92/252/20 86/219/20
f 92/252/20 94/217/20 86/219/20
f 95/220/4 96/223/4 94/221/4
f 95/220/17 85/253/17 86/222/17
f 87/226/22 85/254/22 91/224/22
f 85/254/22 95/255/22 91/224/22
f 95/255/22 93/256/22 91/224/22
